<?xml version="1.0" encoding="utf-8"?>
<!-- Generator: Adobe Illustrator 25.0.0, SVG Export Plug-In . SVG Version: 6.00 Build 0)  -->
<svg version="1.1" id="Layer_1" xmlns="http://www.w3.org/2000/svg" xmlns:xlink="http://www.w3.org/1999/xlink" x="0px" y="0px"
	 viewBox="0 0 500 500" style="enable-background:new 0 0 500 500;" xml:space="preserve">
<style type="text/css">
	.st0{fill:#FF3A44;}
	.st1{fill:#40C4FF;}
	.st2{fill:#FFCA28;}
	.st3{fill:#00E676;}
</style>
<g>
	<path class="st0" d="M355.6,38.3h-42.1c0,35.1-28.4,63.5-63.5,63.5s-63.5-28.4-63.5-63.5h-42.1c-23.5,0-42.4,18.9-42.4,42.4v21.3
		v296.1v21.1c0,23.5,18.9,42.4,42.4,42.4h42.1c0-35.1,28.4-63.5,63.5-63.5s63.5,28.4,63.5,63.5h42.1c23.5,0,42.4-18.9,42.4-42.4
		v-21.1V102.1V80.8C398,57.3,379.1,38.3,355.6,38.3z"/>
	<polygon class="st1" points="102,102.1 102,398.2 250,250.2 	"/>
	<polygon class="st2" points="398,398.2 398,102.1 250,250.2 	"/>
	<path class="st3" d="M355.6,38.3h-42.1c0,35.1-28.4,63.5-63.5,63.5s-63.5-28.4-63.5-63.5h-42.1c-23.5,0-42.4,18.9-42.4,42.4v21.3
		l148,148l148-148V80.8C398,57.3,379.1,38.3,355.6,38.3z"/>
</g>
</svg>
