<svg focusable="false" xmlns="http://www.w3.org/2000/svg" viewBox="0 0 24 24"><path fill="#ea4335" d="M8.65 8.04l-1.4-1.41 3.74-3.74c.58-.58 1.35-.89 2.16-.89h5.8c.82 0 1.58.31 2.16.89L19.69 4.3c-.2-.2-.47-.31-.74-.31l-5.8.01c-.28 0-.54.1-.74.3L8.65 8.04"></path><path fill="#fbbc05" d="M5.8 18.2l-2.9-2.9c-1.19-1.19-1.19-3.12 0-4.32l4.36-4.36 1.4 1.41-4.35 4.37c-.41.41-.41 1.08 0 1.49l2.9 2.9L5.8 18.2"></path><path fill="#4285f4" d="M21.11 2.89L19.69 4.3c.21.21.31.48.31.75v5.8c0 .28-.12.54-.32.74l-3.73 3.74-4.36 4.36c-.41.41-1.08.41-1.49 0l-2.89-2.9L5.8 18.2l2.89 2.9c.6.6 1.38.9 2.16.9.78 0 1.56-.29 2.16-.89l4.36-4.36 3.73-3.74c.58-.58.9-1.34.9-2.16v-5.8c0-.81-.32-1.59-.89-2.16"></path><circle fill="#34a853" cx="16" cy="8" r="2"></circle></svg>